<svg height="2500" viewBox="0 0 52.396 59.011" width="2220" xmlns="http://www.w3.org/2000/svg"><path d="M43.562 0L0 5.355c1.02 14.899 2.216 29.842 2.272 44.5 6.504.823 12.348 2.307 18.107 3.876-.697-6.304-2.79-12.681-5.88-19.11l.485-.15 11.852 24.54c7.557-2.417 16.678-3.696 25.56-5.15l-24.095-21.78 15.922 1.795 6.803-7.134zM14.209 15.863l10.288 1.701-.012 1.701-10.44 1.996z" fill="#f10603"/><path d="M40.396 3.733C27.585 4.31 14.792 4.917 3.213 7.465c1.05 13.366 1.96 26.262 3.354 39.97l9.119 1.938-4.489-17.623c2.628-.66 3.423-.321 4.772-.284L27.923 54.24 44.6 51.452 23.387 30.711c7.319-1.322 13.368-.468 19.891-.426l4.11-4.772a290.932 290.932 0 0 0-6.992-21.78zm-28.301 9.095c5.527.438 10.639 1.498 15.284 3.26l-.968 5.291-13.725 2.835c-1.078-3.844-.54-7.599-.591-11.386z" fill="#fff"/></svg>