<svg height="1996" width="2500" xmlns="http://www.w3.org/2000/svg" viewBox="0 0 1280 1022"><path d="M0 0v1022h1280V0z" fill="#f7f7f7"/><path d="M374 251l-87.659 114L250 413l48-6.432L329 404l-1-4c6.289-5.982 7.578-21.621 10.387-29.804 9.542-27.795 18.692-55.835 26.455-84.196 2.525-9.226 11.443-25.871 9.158-35z" fill="#627c97"/><path d="M375 253c-12.011 33.784-21.977 68.688-32.266 103-3.914 13.052-6.778 33.034-14.734 44l-13 51c18.965 4.734 38.732 12.407 57 19.38 5.21 1.988 18.102 9.217 23.489 6.84 3.665-1.618 4.421-9.822 5.72-13.22 4.988-13.047 8.659-26.7 12.898-40 4.906-15.392 10.274-30.554 14.952-46 1.922-6.346 6.301-14.355 6.28-21-.029-8.715-10.801-21.655-15.267-29-9.808-16.132-19.017-32.672-28.499-49-5.006-8.621-9.318-19.049-16.573-26z" fill="#2292d1"/><path d="M84 295c11.028 14.316 31.907 25.348 47 35.042 24.295 15.604 47.693 33.787 71 50.873 9.797 7.182 20.062 13.814 30 20.816 3.611 2.544 8.338 7.538 12.94 7.964 5.375.496 11.27-9.963 14.036-13.695 9.833-13.265 20.571-25.834 30.536-39 2.747-3.63 9.968-10.105 9.936-14.875-.027-4.216-7.493-7.498-10.448-9.541-10.945-7.565-22.067-14.88-33-22.457-13.289-9.209-26.547-18.491-40-27.46-5.031-3.355-11.306-9.645-17.305-10.895-8.767-1.827-19.14 3.716-27.695 5.032-28.923 4.446-58.617 10.981-87 18.196z" fill="#9191c7"/><path d="M83 295l8.288 15 21.551 30 60.16 84L204 466l8.422-55 1.857-20.776L203 380.915l-29.435-20.657z" fill="#67c3da"/><path d="M847 302v12h1v-11h163c-13.591-5.079-35.464-1-50-1z" fill="#ffebd1"/><path d="M848 303v11l25 1v-1l-24-1v-9h154c-13.085-4.89-34.01-1-48-1z" fill="#cc7f53"/><path d="M1003 303v1h8z" fill="#efb794"/><path d="M849 304v9c16.47 0 37.166.816 46.73 17 11.51 19.479 6.27 51.258 6.27 73v165c0 20.696.94 41.495-1.685 62-1.536 12.007-2.409 22.423-13.433 29.917C871.663 670.262 851.46 668 834 668H309v9h911v-9c-17.65-2.809-36.09-8.134-51-18.241-35.48-24.056-59.59-69.443-84.14-103.759-8.59-12.011-17.44-23.846-25.83-36-2.08-3.02-8.98-9.712-8.19-13.599.8-3.94 10.15-4.192 13.16-5.088 12.49-3.725 25-9.252 36-16.268 36.38-23.21 50.98-73.586 32.59-113.045-14.4-30.876-44.86-46.867-76.59-54.101-25.81-5.884-53.69-3.899-80-3.899z" fill="#ef752a"/><path d="M1034 305v1h6z" fill="#e7a67c"/><path d="M1062 309v1l7 1z" fill="#fdd0af"/><path d="M848 314v1h21z" fill="#f8cfb3"/><path d="M985 323v1h20z" fill="#e89863"/><path d="M972 325v1l39-1c-11.398-4.26-27.081-.069-39 0z" fill="#ffe2ce"/><path d="M955 328v157c33.515 0 71.2-.773 98-24.224 40.94-35.82 30.73-107.961-19-130.318-24.56-11.039-53.368-3.8-79-2.458z" fill="#f7f7f7"/><path d="M954 329v157h27v-1h-26V377c0-13.99 3.89-34.915-1-48z" fill="#eeb798"/><path d="M899 339v5h1z" fill="#f4c7a8"/><path d="M901 352v272h1V378z" fill="#eeb999"/><path d="M1139 386v6h1z" fill="#eeaa85"/><path d="M32 589c59.255-34.582 109.25-85.043 169-119l-16.425-25L147 393c-8.932 3.657-16.295 11.147-24 16.834-15.071 11.127-30.012 22.44-45 33.681-7.65 5.738-20.972 12.363-25.965 20.555-5.961 9.779-5.77 30.487-7.205 41.93-3.466 27.636-11.372 55.147-12.83 83z" fill="#5963ab"/><path d="M316 403v1h8z" fill="#9daabb"/><path d="M1077 410v9h1z" fill="#dfb291"/><path d="M253 412v1h6z" fill="#bac8d1"/><path d="M1137 420v4h1z" fill="#f6b692"/><path d="M315 455l23.759 49 9.94 17.85L360 523l28 .115L513 524c-6.307-4.227-14.898-5.765-22-8.435-18.124-6.813-36.639-12.79-55-18.933-39.916-13.356-79.936-32.103-121-41.632z" fill="#67c3da"/><path d="M48 478v8h1z" fill="#bec6eb"/><path d="M1000 482v1h6z" fill="#f3aa77"/><path d="M32 586h-1v4c15.447-2.548 30.973-9.733 46-14.271 51.957-15.69 104.038-36.086 157-47.729-1.156-2.942-5.204-3.78-8-5.333A334.646 334.646 0 0 0 203 511c-8.832-4.048-17.348-8.841-26-13.167-2.712-1.356-6.886-4.716-10-4.5-6.896.479-17.237 11.492-23 15.334-21.745 14.496-43.088 29.816-64 45.5-11.797 8.847-23.886 17.421-36 25.833-2.48 1.722-11.402 10.487-12 6z" fill="#67c3da"/><path d="M954 503v117h1v-81z" fill="#eeb798"/><path d="M955 503v109c0 13.452-1.63 33.892 8.395 44.402C975.437 669.025 993.121 667 1009 667h102c-4.02-13.777-18.19-27.418-26.57-39-19.74-27.311-39.57-54.565-59.14-82-6.92-9.694-13.91-19.333-20.87-29-2.93-4.07-6.188-10.313-10.644-12.85C985.005 499.154 965.03 503 955 503z" fill="#f7f7f7"/><path d="M44 504v5h1z" fill="#aaafd9"/><path d="M301 517l-16 16 16-13v190l-1 18 4 1-1-58-1-96v-39z" fill="#dc7b34"/><path d="M302 517v85h1v-58z" fill="#e3a87e"/><path d="M346 519l-39 1v1h30z" fill="#bed1ef"/><path d="M300 520l-53 46 43.067 127L300 720h1V540z" fill="#ee741e"/><path d="M306 521v89h1v-61z" fill="#9cb4da"/><path d="M307 521v89c27.717 0 55.314 1 83 1 9.866 0 23.638 3.443 33 .342 10.237-3.391 20.385-16.929 28-24.315 15.061-14.609 30.834-28.499 46.001-43.01 6.647-6.361 15.142-12.105 19.999-20.017z" fill="#3a66af"/><path d="M302 727l-10.878-32-11.843-35L236 531l-65 19.741-21.78 7.948L152 572l13.541 39 14.091 41 7.431 20.298L217 687.6l55 26.668z" fill="#eb4f29"/><path d="M39 536v5h1z" fill="#a5a9cc"/><path d="M37 550v3h1z" fill="#a8acd1"/><path d="M32 581v3h1z" fill="#a9b1d8"/><path d="M321 610v1h39c-10.815-4.042-27.455-1-39-1z" fill="#8ba2c4"/><path d="M384 611v1h25z" fill="#6f8fbe"/><path d="M170 625l1 4h1z" fill="#db9178"/><path d="M955 626v8h1z" fill="#ffd0b0"/><path d="M174 637l1 4h1z" fill="#dfa290"/><path d="M868 666v1h4z" fill="#f5aa80"/><path d="M1111 666l-40 1h-81v1h115z" fill="#ebb696"/><path d="M303 667v60h1v-40z" fill="#ffcda3"/><path d="M309 667v1h555c-13.844-5.174-36.191-1-51-1H699z" fill="#ebb696"/><path d="M1216 667v1h4v9h-100v1h101v-11z" fill="#e38551"/><path d="M1221 667v11h1z" fill="#fcd1af"/><path d="M308 668v10h1z" fill="#ffd0ad"/><path d="M309 677v1h539c-13.338-4.984-34.737-1-49-1H687z" fill="#efa775"/><path d="M848 677v1h160c-13.338-4.984-34.737-1-49-1z" fill="#e38551"/><path d="M1008 677v1h112l-35-1z" fill="#efa775"/><path d="M848 678v1h160c-13.338-4.984-34.737-1-49-1zm272 0v1h101l-32-1z" fill="#f7ceb2"/><path d="M216.667 687.333l.666.334z" fill="#f29b88"/><path d="M247.667 702.333l.666.334z" fill="#ea9f8c"/></svg>